<svg width="345" height="389" viewBox="0 0 345 389" fill="none" xmlns="http://www.w3.org/2000/svg">
<circle cx="172.5" cy="189.5" r="172.5" fill="#BB86FC" fill-opacity="0.3"/>
<path d="M51.5 64H121.5L137 356H40L51.5 64Z" fill="#3700B3"/>
<path d="M242.426 89.491C243.031 80.7675 250.284 74 259.028 74V74C267.749 74 274.991 80.7327 275.626 89.4307L294.5 348H224.5L242.426 89.491Z" fill="#3700B3"/>
<g filter="url(#filter0_d)">
<path d="M224.5 240.5L224.5 233.5L294.5 348L292.5 348L224.5 240.5Z" fill="#3700B3"/>
</g>
<g filter="url(#filter1_d)">
<path d="M51.5001 64L121.5 64L294.5 348L224.5 348L51.5001 64Z" fill="#3700B3"/>
</g>
<path d="M242.5 8.5L258 2.5L263 8.5L270.5 9.5L272.5 15L280 15.5V38.5L279 58L270.5 71H247.5L243.5 68.5L235 59L229 49L224.5 40L222 32.5L227 30.5L239 40.5L242.5 8.5Z" fill="#3700B3"/>
<path d="M283.478 18.5731C283.485 17.4227 283.199 16.2895 282.647 15.2802C282.096 14.2709 281.296 13.4187 280.324 12.8039C279.353 12.1891 278.24 11.8318 277.093 11.7658C275.945 11.6999 274.799 11.9273 273.763 12.4267C273.695 11.2682 273.338 10.1452 272.724 9.16018C272.111 8.17517 271.261 7.35945 270.252 6.78739C269.243 6.21533 268.107 5.90514 266.947 5.88508C265.787 5.86502 264.641 6.13575 263.613 6.67257C263.497 5.00655 262.803 3.43327 261.652 2.22419C260.501 1.01512 258.964 0.246068 257.306 0.0497368C255.649 -0.146594 253.975 0.242105 252.573 1.14877C251.172 2.05544 250.13 3.42321 249.629 5.01609C248.536 4.36053 247.287 4.014 246.013 4.01348C245.076 4.01633 244.148 4.20423 243.284 4.56641C242.419 4.9286 241.635 5.45794 240.975 6.1241C240.315 6.79026 239.794 7.58015 239.439 8.44848C239.085 9.31682 238.906 10.2465 238.912 11.1843V38.7779C236.124 35.2905 233.401 31.8468 232.987 31.2583C232.357 30.2574 231.483 29.4338 230.446 28.8656C229.409 28.2973 228.245 28.0031 227.062 28.0107C226.06 27.9804 225.062 28.156 224.129 28.5267C223.197 28.8975 222.351 29.4554 221.643 30.1662C220.934 30.877 220.379 31.7255 220.011 32.6593C219.643 33.5931 219.471 34.5925 219.504 35.5957C219.7 39.5189 227.28 53.3811 232.377 60.9225C240.088 72.3435 247.451 74 247.777 74L250.48 73.3412C256.256 71.9329 262.287 71.9375 268.061 73.3544L270.692 74C271.126 73.9953 271.546 73.85 271.89 73.5859C275.802 69.979 278.63 65.352 280.058 60.225C282.237 53.4901 283.391 43.8127 283.5 30.6698L283.478 18.5731ZM276.334 59.0044C275.111 63.1528 272.915 66.9489 269.93 70.0767L268.564 69.7177C262.471 68.1154 256.068 68.0959 249.965 69.661L248.344 70.0767C247.32 69.7716 241.656 67.6792 235.557 58.6339C229.458 49.5886 223.534 37.5355 223.425 35.3995C223.407 34.9433 223.485 34.4884 223.654 34.0642C223.823 33.64 224.079 33.2559 224.405 32.9366C224.726 32.6057 225.113 32.3455 225.541 32.1729C225.968 32.0002 226.427 31.9189 226.888 31.934C227.464 31.9005 228.037 32.0274 228.545 32.3006C229.052 32.5738 229.474 32.9826 229.763 33.4815C230.395 34.4187 234.904 40.0202 237.54 43.355L242.833 39.7805V11.1843C242.796 10.7399 242.852 10.2927 242.997 9.87094C243.142 9.44921 243.372 9.0621 243.674 8.73408C243.976 8.40606 244.343 8.14423 244.751 7.96515C245.159 7.78606 245.6 7.69359 246.046 7.69359C246.491 7.69359 246.932 7.78606 247.34 7.96515C247.748 8.14423 248.115 8.40606 248.417 8.73408C248.719 9.0621 248.949 9.44921 249.094 9.87094C249.239 10.2927 249.295 10.7399 249.258 11.1843V35.4649H253.179V7.13029C253.272 6.32824 253.656 5.58827 254.258 5.05116C254.861 4.51404 255.64 4.21725 256.447 4.21725C257.253 4.21725 258.032 4.51404 258.635 5.05116C259.237 5.58827 259.621 6.32824 259.714 7.13029V35.7483H263.635V12.9716C263.599 12.5418 263.652 12.1093 263.792 11.7013C263.931 11.2933 264.154 10.9188 264.446 10.6013C264.738 10.2839 265.092 10.0305 265.487 9.85718C265.881 9.68385 266.308 9.59436 266.739 9.59436C267.17 9.59436 267.596 9.68385 267.991 9.85718C268.385 10.0305 268.74 10.2839 269.031 10.6013C269.323 10.9188 269.546 11.2933 269.685 11.7013C269.825 12.1093 269.879 12.5418 269.843 12.9716V37.906H273.763V18.5077C273.826 17.7851 274.157 17.1123 274.692 16.6221C275.226 16.1319 275.925 15.86 276.65 15.86C277.374 15.86 278.073 16.1319 278.607 16.6221C279.142 17.1123 279.473 17.7851 279.536 18.5077V30.6044C279.47 43.4858 278.425 52.6618 276.334 59.0044Z" fill="#3700B3"/>
<defs>
<filter id="filter0_d" x="215.604" y="225.5" width="86.3915" height="123.417" filterUnits="userSpaceOnUse" color-interpolation-filters="sRGB">
<feFlood flood-opacity="0" result="BackgroundImageFix"/>
<feColorMatrix in="SourceAlpha" type="matrix" values="0 0 0 0 0 0 0 0 0 0 0 0 0 0 0 0 0 0 127 0" result="hardAlpha"/>
<feOffset dy="-4"/>
<feGaussianBlur stdDeviation="2"/>
<feComposite in2="hardAlpha" operator="out"/>
<feColorMatrix type="matrix" values="0 0 0 0 0 0 0 0 0 0 0 0 0 0 0 0 0 0 0.7 0"/>
<feBlend mode="normal" in2="BackgroundImageFix" result="effect1_dropShadow"/>
<feBlend mode="normal" in="SourceGraphic" in2="effect1_dropShadow" result="shape"/>
</filter>
<filter id="filter1_d" x="38.3917" y="31.9155" width="269.217" height="356.169" filterUnits="userSpaceOnUse" color-interpolation-filters="sRGB">
<feFlood flood-opacity="0" result="BackgroundImageFix"/>
<feColorMatrix in="SourceAlpha" type="matrix" values="0 0 0 0 0 0 0 0 0 0 0 0 0 0 0 0 0 0 127 0" result="hardAlpha"/>
<feOffset dy="4"/>
<feGaussianBlur stdDeviation="2"/>
<feComposite in2="hardAlpha" operator="out"/>
<feColorMatrix type="matrix" values="0 0 0 0 0 0 0 0 0 0 0 0 0 0 0 0 0 0 0.7 0"/>
<feBlend mode="normal" in2="BackgroundImageFix" result="effect1_dropShadow"/>
<feBlend mode="normal" in="SourceGraphic" in2="effect1_dropShadow" result="shape"/>
</filter>
</defs>
</svg>
